<svg xmlns="http://www.w3.org/2000/svg">
    <symbol id="addFriends" viewBox="0 0 24 24">
        <g>
            <path d="M20.9061 18.0937H19.0311V16.2187C19.0311 16.1156 18.9467 16.0312 18.8436 16.0312H17.7186C17.6155 16.0312 17.5311 16.1156 17.5311 16.2187V18.0937H15.6561C15.553 18.0937 15.4686 18.1781 15.4686 18.2812V19.4062C15.4686 19.5093 15.553 19.5937 15.6561 19.5937H17.5311V21.4687C17.5311 21.5718 17.6155 21.6562 17.7186 21.6562H18.8436C18.9467 21.6562 19.0311 21.5718 19.0311 21.4687V19.5937H20.9061C21.0092 19.5937 21.0936 19.5093 21.0936 19.4062V18.2812C21.0936 18.1781 21.0092 18.0937 20.9061 18.0937ZM8.75376 11.6812C8.73266 11.4773 8.72094 11.2711 8.72094 11.0625C8.72094 10.6898 8.7561 10.3265 8.82173 9.97263C8.83813 9.88825 8.7936 9.80153 8.71626 9.76638C8.39751 9.62341 8.10454 9.42653 7.85141 9.1781C7.55315 8.88889 7.31844 8.54069 7.16227 8.15571C7.0061 7.77073 6.93189 7.35742 6.94438 6.94216C6.96548 6.18981 7.26782 5.47497 7.79516 4.93591C8.37407 4.34294 9.15219 4.0195 9.97954 4.02888C10.7272 4.03591 11.4491 4.32419 11.9952 4.83513C12.1803 5.00856 12.3397 5.20075 12.4733 5.407C12.5202 5.47966 12.6116 5.51013 12.6913 5.482C13.1038 5.33903 13.5397 5.23825 13.9874 5.19138C14.1186 5.17731 14.1936 5.03669 14.135 4.9195C13.3733 3.41247 11.817 2.37185 10.017 2.34372C7.42016 2.30388 5.25454 4.43435 5.25454 7.03122C5.25454 8.5031 5.93188 9.8156 6.9936 10.6758C6.24829 11.0203 5.56157 11.4961 4.96626 12.0914C3.68188 13.3734 2.95532 15.0656 2.90844 16.8726C2.90782 16.8976 2.91221 16.9225 2.92135 16.9458C2.93049 16.9691 2.9442 16.9903 2.96168 17.0082C2.97915 17.0262 3.00003 17.0404 3.02309 17.0501C3.04615 17.0598 3.07092 17.0648 3.09595 17.0648H4.41079C4.51157 17.0648 4.59594 16.9851 4.59829 16.8843C4.64282 15.525 5.1936 14.2523 6.16157 13.2867C6.85063 12.5976 7.69438 12.1195 8.61548 11.8875C8.70454 11.8617 8.76548 11.775 8.75376 11.6812ZM19.3124 11.0625C19.3124 8.49841 17.2522 6.41481 14.6975 6.37497C12.1006 6.33513 9.93735 8.4656 9.93735 11.0625C9.93735 12.5343 10.617 13.8468 11.6764 14.707C10.9234 15.0561 10.2379 15.5353 9.65141 16.1226C8.36704 17.4047 7.64048 19.0968 7.5936 20.9015C7.59298 20.9265 7.59736 20.9514 7.60651 20.9747C7.61565 20.998 7.62936 21.0192 7.64683 21.0372C7.66431 21.0551 7.68519 21.0693 7.70825 21.079C7.73131 21.0887 7.75608 21.0937 7.7811 21.0937H9.0936C9.19438 21.0937 9.27876 21.014 9.2811 20.9132C9.32563 19.5539 9.87641 18.2812 10.8444 17.3156C11.8545 16.3054 13.1952 15.75 14.6249 15.75C17.2124 15.75 19.3124 13.6523 19.3124 11.0625ZM16.7459 13.1836C16.1788 13.7508 15.4264 14.0625 14.6249 14.0625C13.8233 14.0625 13.0709 13.7508 12.5038 13.1836C12.2207 12.902 11.9971 12.5665 11.8461 12.1969C11.6951 11.8273 11.6199 11.4312 11.6249 11.032C11.6319 10.2633 11.9389 9.52028 12.4756 8.9695C13.0381 8.39294 13.7905 8.07185 14.5944 8.06247C15.3889 8.05544 16.16 8.36481 16.7272 8.92028C17.3084 9.48981 17.6272 10.2515 17.6272 11.0625C17.6249 11.864 17.3131 12.6164 16.7459 13.1836Z"/>
        </g>
    </symbol>
    <symbol id="message" viewBox="0 0 22 22">
        <g>
            <path d="M9.87519 11C9.87519 11.2984 9.99372 11.5845 10.2047 11.7955C10.4157 12.0065 10.7018 12.125 11.0002 12.125C11.2986 12.125 11.5847 12.0065 11.7957 11.7955C12.0067 11.5845 12.1252 11.2984 12.1252 11C12.1252 10.7016 12.0067 10.4155 11.7957 10.2045C11.5847 9.99353 11.2986 9.875 11.0002 9.875C10.7018 9.875 10.4157 9.99353 10.2047 10.2045C9.99372 10.4155 9.87519 10.7016 9.87519 11ZM14.5627 11C14.5627 11.2984 14.6812 11.5845 14.8922 11.7955C15.1032 12.0065 15.3893 12.125 15.6877 12.125C15.9861 12.125 16.2722 12.0065 16.4832 11.7955C16.6942 11.5845 16.8127 11.2984 16.8127 11C16.8127 10.7016 16.6942 10.4155 16.4832 10.2045C16.2722 9.99353 15.9861 9.875 15.6877 9.875C15.3893 9.875 15.1032 9.99353 14.8922 10.2045C14.6812 10.4155 14.5627 10.7016 14.5627 11ZM5.18769 11C5.18769 11.2984 5.30622 11.5845 5.5172 11.7955C5.72818 12.0065 6.01433 12.125 6.31269 12.125C6.61106 12.125 6.89721 12.0065 7.10819 11.7955C7.31917 11.5845 7.43769 11.2984 7.43769 11C7.43769 10.7016 7.31917 10.4155 7.10819 10.2045C6.89721 9.99353 6.61106 9.875 6.31269 9.875C6.01433 9.875 5.72818 9.99353 5.5172 10.2045C5.30622 10.4155 5.18769 10.7016 5.18769 11ZM20.6846 6.93125C20.1549 5.67266 19.3955 4.54297 18.4275 3.57266C17.4663 2.60796 16.3253 1.84114 15.0689 1.31563C13.7799 0.774219 12.4111 0.5 11.0002 0.5H10.9533C9.53301 0.507031 8.15723 0.788281 6.86348 1.34141C5.61791 1.87232 4.48753 2.64049 3.53535 3.60312C2.57676 4.57109 1.82441 5.69609 1.3041 6.95C0.765038 8.24844 0.493163 9.62891 0.500194 11.0492C0.508147 12.6769 0.893222 14.2806 1.62519 15.7344V19.2969C1.62519 19.5828 1.73878 19.857 1.94097 20.0592C2.14316 20.2614 2.41738 20.375 2.70332 20.375H6.26816C7.72198 21.107 9.32565 21.492 10.9533 21.5H11.0025C12.4064 21.5 13.7682 21.2281 15.0502 20.6961C16.3002 20.1768 17.437 19.419 18.3971 18.4648C19.365 17.5063 20.1268 16.3859 20.6588 15.1367C21.2119 13.843 21.4932 12.4672 21.5002 11.0469C21.5072 9.61953 21.2307 8.23438 20.6846 6.93125ZM17.1432 17.1969C15.5002 18.8234 13.3205 19.7188 11.0002 19.7188H10.9604C9.54707 19.7117 8.14316 19.3602 6.90332 18.6992L6.70644 18.5938H3.40644V15.2938L3.30098 15.0969C2.64004 13.857 2.28848 12.4531 2.28144 11.0398C2.27207 8.70312 3.16504 6.50937 4.80332 4.85703C6.43926 3.20469 8.62598 2.29062 10.9627 2.28125H11.0025C12.1744 2.28125 13.3111 2.50859 14.3822 2.95859C15.4275 3.39687 16.365 4.02734 17.1713 4.83359C17.9752 5.6375 18.608 6.57734 19.0463 7.62266C19.501 8.70547 19.7283 9.85391 19.7236 11.0398C19.7096 13.3742 18.7932 15.5609 17.1432 17.1969Z"/>
        </g>
    </symbol>
    <symbol id="bell" viewBox="0 0 16 22">
        <g>
            <path d="M15.125 17H14.5625V9.03125C14.5625 5.72422 12.118 2.99141 8.9375 2.53672V1.625C8.9375 1.10703 8.51797 0.6875 8 0.6875C7.48203 0.6875 7.0625 1.10703 7.0625 1.625V2.53672C3.88203 2.99141 1.4375 5.72422 1.4375 9.03125V17H0.875C0.460156 17 0.125 17.3352 0.125 17.75V18.5C0.125 18.6031 0.209375 18.6875 0.3125 18.6875H5.375C5.375 20.1359 6.55156 21.3125 8 21.3125C9.44844 21.3125 10.625 20.1359 10.625 18.6875H15.6875C15.7906 18.6875 15.875 18.6031 15.875 18.5V17.75C15.875 17.3352 15.5398 17 15.125 17ZM8 19.8125C7.37891 19.8125 6.875 19.3086 6.875 18.6875H9.125C9.125 19.3086 8.62109 19.8125 8 19.8125ZM3.125 17V9.03125C3.125 7.72813 3.63125 6.50469 4.55234 5.58359C5.47344 4.6625 6.69688 4.15625 8 4.15625C9.30313 4.15625 10.5266 4.6625 11.4477 5.58359C12.3687 6.50469 12.875 7.72813 12.875 9.03125V17H3.125Z"/>
        </g>
    </symbol>
    <symbol id="info" viewBox="0 0 24 24">
        <g>
            <path d="M12 1.5C6.20156 1.5 1.5 6.20156 1.5 12C1.5 17.7984 6.20156 22.5 12 22.5C17.7984 22.5 22.5 17.7984 22.5 12C22.5 6.20156 17.7984 1.5 12 1.5ZM12 20.7188C7.18594 20.7188 3.28125 16.8141 3.28125 12C3.28125 7.18594 7.18594 3.28125 12 3.28125C16.8141 3.28125 20.7188 7.18594 20.7188 12C20.7188 16.8141 16.8141 20.7188 12 20.7188Z"/>
            <path d="M10.875 7.875C10.875 8.17337 10.9935 8.45952 11.2045 8.6705C11.4155 8.88147 11.7016 9 12 9C12.2984 9 12.5845 8.88147 12.7955 8.6705C13.0065 8.45952 13.125 8.17337 13.125 7.875C13.125 7.57663 13.0065 7.29048 12.7955 7.0795C12.5845 6.86853 12.2984 6.75 12 6.75C11.7016 6.75 11.4155 6.86853 11.2045 7.0795C10.9935 7.29048 10.875 7.57663 10.875 7.875ZM12.5625 10.5H11.4375C11.3344 10.5 11.25 10.5844 11.25 10.6875V17.0625C11.25 17.1656 11.3344 17.25 11.4375 17.25H12.5625C12.6656 17.25 12.75 17.1656 12.75 17.0625V10.6875C12.75 10.5844 12.6656 10.5 12.5625 10.5Z"/>
        </g>
    </symbol>
    <symbol id="caret-down" viewBox="0 0 16 16">
        <g>
            <path d="M13.1308 4.6875H2.8683C2.56049 4.6875 2.38862 5.0125 2.57924 5.23437L7.71049 11.1844C7.85736 11.3547 8.14018 11.3547 8.28861 11.1844L13.4199 5.23437C13.6105 5.0125 13.4386 4.6875 13.1308 4.6875Z"/>
        </g>
    </symbol>
</svg>